#!OML:ASF H:\Terrain\Patient Classification 1\Animal2\Wednesday\Animal2.ASF
:FULLY-SPECIFIED
:DEGREES
3252
root 29.3677 16.8391 -22.5551 4.23113 22.4631 -1.67295
lowerback 11.5718 -1.12957 2.37819
upperback 3.53919 -1.12859 1.70163
thorax -2.79863 -0.550646 0.583144
lowerneck 18.1934 17.2177 16.7805
upperneck -32.0014 20.6333 -38.5543
head -5.53595 13.5783 -18.2514
rclavicle -2.8625e-014 -1.43125e-014
rhumerus -22.7011 9.82642 -90.1224
rradius 134.942
rwrist 5.48028
rhand -35.2008 14.7126
rfingers 7.12502
rthumb -8.33852 -15.1028
lclavicle -2.8625e-014 -1.43125e-014
lhumerus -22.8881 -14.1233 86.2445
lradius 138.081
lwrist 41.3781
lhand -26.2463 38.8503
lfingers 7.12502
lthumb 0.307872 -291.17
rfemur -23.8288 10.1529 13.5546
rtibia 46.2838
rfoot -29.5048 -5.85423
rtoes -11.7869
lfemur -32.6596 -3.78784 -10.8756
ltibia 47.6226
lfoot -21.7439 -5.87534
ltoes -33.7935
3253
root 29.3812 16.8385 -22.5694 4.31318 22.6144 -1.72874
lowerback 11.7261 -1.08807 2.46458
upperback 3.41931 -1.05629 1.67082
thorax -3.0094 -0.51692 0.497047
lowerneck 18.1263 17.2531 16.5355
upperneck -32.0342 20.639 -38.2472
head -5.62712 13.554 -18.0911
rclavicle -4.9895e-014 5.56597e-014
rhumerus -22.9654 10.2325 -90.2231
rradius 134.961
rwrist 6.26122
rhand -35.7267 14.0681
rfingers 7.12502
rthumb -8.84607 -15.7265
lclavicle -4.9895e-014 5.56597e-014
lhumerus -23.1656 -13.6978 86.0232
lradius 138.15
lwrist 41.2846
lhand -25.7051 38.7789
lfingers 7.12502
lthumb 0.830562 -291.243
rfemur -23.7821 9.94315 13.5647
rtibia 46.1111
rfoot -29.4813 -6.6107
rtoes -13.8414
lfemur -32.8502 -3.88782 -10.8678
ltibia 47.589
lfoot -21.7602 -5.85651
ltoes -33.9336
3254
root 29.3931 16.8442 -22.5857 4.56008 22.6895 -1.48386
lowerback 12.0599 -0.977124 2.24723
upperback 3.02717 -0.921915 1.52914
thorax -3.59929 -0.456218 0.463231
lowerneck 18.6316 17.0801 16.8697
upperneck -32.0555 20.5521 -38.2379
head -5.70789 13.4982 -18.2546
rclavicle -2.46493e-014 9.93923e-015
rhumerus -24.0117 11.0808 -90.6873
rradius 135.001
rwrist 8.88459
rhand -37.5207 11.2168
rfingers 7.12502
rthumb -10.577 -18.497
lclavicle -2.46493e-014 9.93923e-015
lhumerus -23.8714 -13.4523 85.8813
lradius 138.256
lwrist 41.2441
lhand -25.9503 38.3403
lfingers 7.12502
lthumb 0.593753 -291.681
rfemur -23.9071 9.85945 13.2044
rtibia 45.9854
rfoot -29.4308 -6.58038
rtoes -13.7919
lfemur -33.0503 -3.97912 -11.1808
ltibia 47.5359
lfoot -21.731 -5.74162
ltoes -33.9641
3255
root 29.4031 16.8504 -22.601 4.69302 22.6722 -1.42397
lowerback 12.163 -0.810612 2.20414
upperback 2.85995 -0.707968 1.37848
thorax -3.83005 -0.353267 0.301516
lowerneck 18.7177 16.8593 17.1592
upperneck -31.9733 20.3699 -38.0894
head -5.74063 13.3579 -18.2829
rclavicle 3.26007e-014 9.14409e-015
rhumerus -24.2928 10.5954 -90.6734
rradius 135.05
rwrist 8.0644
rhand -37.7921 14.3929
rfingers 7.12502
rthumb -10.8387 -15.3074
lclavicle 3.26007e-014 9.14409e-015
lhumerus -24.2667 -13.4447 85.6074
lradius 138.351
lwrist 41.4205
lhand -26.6324 37.8268
lfingers 7.12502
lthumb -0.0650142 -292.193
rfemur -24.0348 9.96313 13.0342
rtibia 45.8642
rfoot -29.3619 -6.42908
rtoes -13.5672
lfemur -33.18 -4.01606 -11.306
ltibia 47.4968
lfoot -21.6275 -5.53497
ltoes -33.8899
3256
root 29.414 16.8535 -22.6113 4.74633 22.7677 -1.66525
lowerback 11.7623 -0.666934 2.3992
upperback 3.11415 -0.512587 1.39134
thorax -3.34399 -0.252664 0.168851
lowerneck 18.0561 16.752 17.0439
upperneck -31.885 20.1455 -37.8996
head -5.71061 13.2 -18.1086
rclavicle 1.35174e-014 -1.11319e-014
rhumerus -23.6112 10.4441 -90.507
rradius 135.169
rwrist 7.87114
rhand -38.2551 15.1185
rfingers 7.12502
rthumb -11.2853 -14.5579
lclavicle 1.35174e-014 -1.11319e-014
lhumerus -23.8708 -13.4845 85.3756
lradius 138.327
lwrist 41.5932
lhand -27.2093 37.5549
lfingers 7.12502
lthumb -0.622254 -292.466
rfemur -24.1395 9.93113 13.2026
rtibia 45.7196
rfoot -29.3475 -6.52344
rtoes -14.166
lfemur -33.3888 -4.06456 -11.1054
ltibia 47.4772
lfoot -21.5868 -5.37899
ltoes -33.7971
3257
root 29.428 16.8555 -22.6242 4.83883 22.8893 -1.76005
lowerback 11.5478 -0.616226 2.40085
upperback 3.37473 -0.455728 1.43999
thorax -2.95355 -0.219277 0.206356
lowerneck 17.153 16.8261 16.8206
upperneck -31.7313 20.1228 -37.78
head -5.55337 13.1517 -17.8394
rclavicle 7.55382e-015 -9.14409e-015
rhumerus -22.7384 10.7059 -90.2521
rradius 135.214
rwrist 7.86597
rhand -38.3594 14.7204
rfingers 7.12502
rthumb -11.3859 -14.9505
lclavicle 7.55382e-015 -9.14409e-015
lhumerus -23.3528 -13.0966 85.2185
lradius 138.268
lwrist 41.7317
lhand -27.3724 37.3931
lfingers 7.12502
lthumb -0.77975 -292.629
rfemur -24.2686 9.8404 13.1538
rtibia 45.5692
rfoot -29.3293 -5.73907
rtoes -12.075
lfemur -33.59 -4.09472 -11.078
ltibia 47.4713
lfoot -21.6044 -5.30116
ltoes -33.9473
3258
root 29.4415 16.859 -22.6402 4.88574 22.9934 -1.67482
lowerback 11.591 -0.577193 2.26321
upperback 3.35243 -0.420413 1.3771
thorax -2.9996 -0.201962 0.214041
lowerneck 17.3198 16.7511 16.869
upperneck -31.7642 20.073 -37.5741
head -5.64122 13.0994 -17.8146
rclavicle 4.3832e-014 -2.10712e-014
rhumerus -22.7175 10.8792 -90.2499
rradius 135.273
rwrist 7.91027
rhand -37.9813 14.1255
rfingers 7.12502
rthumb -11.0213 -15.5651
lclavicle 4.3832e-014 -2.10712e-014
lhumerus -23.5743 -12.6128 85.0339
lradius 138.311
lwrist 41.9744
lhand -27.3264 37.2085
lfingers 7.12502
lthumb -0.735313 -292.813
rfemur -24.2469 9.86931 12.9397
rtibia 45.421
rfoot -29.2824 -5.09471
rtoes -9.46543
lfemur -33.6511 -4.16803 -11.2483
ltibia 47.4832
lfoot -21.6083 -5.22349
ltoes -33.979
3259
root 29.4543 16.8633 -22.6569 4.93071 23.1758 -1.5967
lowerback 11.6283 -0.577343 2.1003
upperback 3.37309 -0.438807 1.36079
thorax -2.99784 -0.210426 0.291529
lowerneck 17.527 16.7455 16.6727
upperneck -32.1402 19.9992 -37.4536
head -5.8693 13.0788 -17.865
rclavicle 4.05521e-014 1.23246e-014
rhumerus -22.6091 11.1041 -90.1982
rradius 135.433
rwrist 7.66342
rhand -37.3634 15.4421
rfingers 7.12502
rthumb -10.4252 -14.2795
lclavicle 4.05521e-014 1.23246e-014
lhumerus -23.7847 -12.0253 84.8578
lradius 138.543
lwrist 42.2064
lhand -27.1954 37.7672
lfingers 7.12502
lthumb -0.608824 -292.254
rfemur -24.1471 9.83534 12.7952
rtibia 45.2795
rfoot -29.2934 -5.31309
rtoes -9.33617
lfemur -33.765 -4.39108 -11.388
ltibia 47.5298
lfoot -21.6459 -5.08413
ltoes -34.2856
3260
root 29.468 16.8661 -22.6744 4.92919 23.382 -1.70556
lowerback 11.7283 -0.557125 2.16677
upperback 3.349 -0.400343 1.35812
thorax -3.0777 -0.192024 0.246999
lowerneck 17.5355 16.6666 16.714
upperneck -32.2333 19.8873 -37.4683
head -5.92534 13.0239 -17.9226
rclavicle -3.02153e-014 -3.97569e-015
rhumerus -22.8679 12.2232 -90.5426
rradius 135.31
rwrist 10.9684
rhand -40.2436 11.7415
rfingers 7.12502
rthumb -13.2026 -17.8204
lclavicle -3.02153e-014 -3.97569e-015
lhumerus -23.9114 -11.6264 84.6421
lradius 138.898
lwrist 42.5512
lhand -27.2182 38.3959
lfingers 7.12502
lthumb -0.630794 -291.625
rfemur -24.0928 9.70469 12.8465
rtibia 45.1284
rfoot -29.3184 -5.5001
rtoes -9.77105
lfemur -33.9844 -4.56049 -11.3398
ltibia 47.6423
lfoot -21.6768 -4.99257
ltoes -34.8035
3261
root 29.4826 16.8625 -22.6938 4.72432 23.5367 -2.18191
lowerback 11.9574 -0.540094 2.63728
upperback 3.2851 -0.310642 1.39278
thorax -3.27036 -0.150812 0.00768336
lowerneck 17.4123 16.5079 17.0806
upperneck -31.8749 19.8102 -37.4116
head -5.77233 12.9309 -17.8814
rclavicle -2.95195e-014 -2.32578e-014
rhumerus -23.0717 12.056 -90.5945
rradius 135.397
rwrist 10.4349
rhand -40.6237 11.9694
rfingers 7.12502
rthumb -13.5689 -17.5684
lclavicle -2.95195e-014 -2.32578e-014
lhumerus -23.9802 -11.3654 84.3428
lradius 139.007
lwrist 42.93
lhand -27.3603 38.189
lfingers 7.12502
lthumb -0.768107 -291.833
rfemur -24.0143 9.62638 13.2766
rtibia 44.979
rfoot -29.2935 -5.61138
rtoes -10.2067
lfemur -34.1616 -4.56415 -10.9239
ltibia 47.8109
lfoot -21.6711 -4.96636
ltoes -34.6584
3262
root 29.4968 16.8555 -22.7138 4.53872 23.6255 -2.68659
lowerback 12.1835 -0.526046 3.07249
upperback 3.18918 -0.223959 1.46864
thorax -3.49343 -0.11275 -0.168824
lowerneck 17.4998 16.3644 17.4223
upperneck -31.6658 19.75 -37.3774
head -5.70048 12.8636 -17.9086
rclavicle 4.07509e-015 -1.8487e-014
rhumerus -23.1055 11.6116 -90.4576
rradius 135.543
rwrist 8.66713
rhand -39.4859 13.7748
rfingers 7.12502
rthumb -12.4722 -15.8331
lclavicle 4.07509e-015 -1.8487e-014
lhumerus -24.1254 -11.0562 84.1557
lradius 138.99
lwrist 43.1415
lhand -27.4755 37.8722
lfingers 7.12502
lthumb -0.879304 -292.15
rfemur -23.9897 9.66917 13.7165
rtibia 44.8598
rfoot -29.1908 -5.78677
rtoes -10.5715
lfemur -34.3535 -4.50354 -10.4695
ltibia 47.9771
lfoot -21.6915 -4.93504
ltoes -34.3419
3263
root 29.5094 16.8533 -22.7302 4.56674 23.6466 -2.749
lowerback 12.3141 -0.471746 3.00606
upperback 3.14864 -0.152895 1.48548
thorax -3.60539 -0.0788178 -0.123624
lowerneck 17.4629 16.3618 17.4373
upperneck -31.6129 19.7615 -37.3262
head -5.68092 12.8585 -17.8714
rclavicle -3.22031e-014 6.75868e-015
rhumerus -22.9311 11.3274 -90.2466
rradius 135.609
rwrist 7.74021
rhand -38.9056 14.2034
rfingers 7.12502
rthumb -11.9126 -15.4376
lclavicle -3.22031e-014 6.75868e-015
lhumerus -24.3659 -10.8222 84.1157
lradius 139.065
lwrist 43.0198
lhand -28.2715 37.8701
lfingers 7.12502
lthumb -1.64812 -292.157
rfemur -24.0315 9.70374 13.709
rtibia 44.7747
rfoot -28.935 -6.19282
rtoes -12.1227
lfemur -34.5332 -4.39799 -10.4849
ltibia 48.0885
lfoot -21.7814 -4.96575
ltoes -34.4503
3264
root 29.5215 16.8546 -22.7454 4.73506 23.6438 -2.63542
lowerback 12.2742 -0.396475 2.7724
upperback 3.15428 -0.0859463 1.45618
thorax -3.57604 -0.0441682 -0.0330707
lowerneck 17.2543 16.4022 17.2462
upperneck -31.578 19.7662 -37.1522
head -5.68846 12.8439 -17.7316
rclavicle -4.57205e-015 -2.28602e-014
rhumerus -22.7817 11.2894 -90.2412
rradius 135.574
rwrist 7.95303
rhand -38.562 13.5834
rfingers 7.12502
rthumb -11.5812 -16.0766
lclavicle -4.57205e-015 -2.28602e-014
lhumerus -24.55 -10.7463 84.1745
lradius 139.049
lwrist 42.4378
lhand -29.2095 38.088
lfingers 7.12502
lthumb -2.55407 -291.948
rfemur -24.1989 9.72978 13.5117
rtibia 44.7279
rfoot -28.7567 -6.61425
rtoes -13.6299
lfemur -34.7452 -4.27124 -10.6847
ltibia 48.1481
lfoot -21.8523 -5.01628
ltoes -34.9406
3265
root 29.5362 16.8589 -22.7621 4.9242 23.6482 -2.65148
lowerback 12.1707 -0.334996 2.71315
upperback 3.1248 -0.0172648 1.42826
thorax -3.54883 -0.0101026 -0.0394884
lowerneck 17.1497 16.3587 17.0381
upperneck -31.6979 19.6599 -36.8315
head -5.82569 12.7591 -17.6056
rclavicle -3.8266e-014 3.18055e-015
rhumerus -22.5976 10.5636 -90.1092
rradius 135.677
rwrist 5.98399
rhand -35.3767 16.5312
rfingers 7.12502
rthumb -8.50835 -13.2773
lclavicle -3.8266e-014 3.18055e-015
lhumerus -24.6011 -10.5845 84.1736
lradius 139.002
lwrist 41.9316
lhand -29.6721 38.1312
lfingers 7.12502
lthumb -3.00079 -291.91
rfemur -24.4665 9.85034 13.3871
rtibia 44.7068
rfoot -28.8291 -6.41371
rtoes -12.3436
lfemur -35.0164 -4.22923 -10.7279
ltibia 48.1952
lfoot -21.746 -5.3009
ltoes -33.9291
3266
root 29.5546 16.8602 -22.78 5.06981 23.6675 -2.66019
lowerback 12.2305 -0.29789 2.71531
upperback 3.0295 0.0333371 1.36577
thorax -3.68014 0.0124976 -0.112985
lowerneck 17.169 16.263 17.0922
upperneck -31.7221 19.5678 -36.6238
head -5.89417 12.6768 -17.561
rclavicle -2.98177e-014 8.34896e-015
rhumerus -22.7456 10.2348 -90.195
rradius 135.619
rwrist 5.70102
rhand -34.2835 17.6724
rfingers 7.12502
rthumb -7.45326 -12.1763
lclavicle -2.98177e-014 8.34896e-015
lhumerus -24.7458 -10.3336 83.9987
lradius 139.074
lwrist 41.9834
lhand -30.1676 37.8781
lfingers 7.12502
lthumb -3.47934 -292.171
rfemur -24.656 9.94668 13.2403
rtibia 44.7092
rfoot -28.8477 -6.13648
rtoes -10.6065
lfemur -35.2564 -4.21235 -10.7945
ltibia 48.2579
lfoot -21.6306 -5.62358
ltoes -32.2974
